<?xml version="1.0" standalone="no"?><!DOCTYPE svg PUBLIC "-//W3C//DTD SVG 1.1//EN" "http://www.w3.org/Graphics/SVG/1.1/DTD/svg11.dtd"><svg t="1641452515757" class="icon" viewBox="0 0 1280 1024" version="1.1" xmlns="http://www.w3.org/2000/svg" p-id="14270" xmlns:xlink="http://www.w3.org/1999/xlink" width="160" height="128"><defs><style type="text/css"></style></defs><path d="M1023.36 178.0992c23.7568 22.0544 28.5952 49.9968 25.0624 80.5376-1.0368 9.024-3.0592 17.8304-1.1648 27.1232 1.8432 8.896 6.0032 14.5536 15.0784 16.4224 5.5168 1.1648 10.7776 3.0848 13.952 6.1056-23.488 18.4576-50.0864 31.2448-79.36 38.8224 5.44-5.7472 11.84-10.5984 15.5648-18.7392-23.7312-0.96-45.1712 7.104-67.3792 10.9056 17.6384-6.2592 34.0096-15.0528 51.2-21.9648 6.7584-2.7136 13.888-4.0832 21.0176-4.9664 5.2864-0.6912 6.8096-3.4816 6.7456-8.0128a61.248 61.248 0 0 0-0.6784-8.8064c-2.4576-15.2448-1.0752-30.272 0.9856-45.5424 2.4064-17.8944-0.3584-35.84-3.328-53.6192-0.9984-6.0544-1.7152-12.1728-2.5472-18.2528l4.8512-0.0128zM89.6 679.5392c32.2944-10.3168 65.216-18.3424 98.2144-25.9584 13.0048-3.008 26.0992-5.6832 39.1552-8.5632a40.1536 40.1536 0 0 0 13.1456-5.6576c130.5728-83.5968 271.6416-142.0416 422.8608-176.1408 49.9456-11.264 100.4544-18.9568 151.3728-23.7568 47.0912-4.4544 94.3488-4.4928 141.6064-3.4432 0.7424 0.0128 1.4464 0.2688 2.6368 1.1648-89.216 23.1552-161.856 68.2624-206.2464 152.9472 154.2784 6.3872 302.8608 30.08 438.0544 107.7376-8.1664-0.192-15.3216-3.9296-22.784-6.4384-70.0544-23.6288-141.6576-40.7936-214.6432-52.5312-62.2208-10.0352-124.8384-16.064-187.7632-19.5456-76.2496-4.1856-152.4608-3.1872-228.6336 0.7552-60.5184 3.1104-120.8832 8.576-181.0176 16.064-87.3728 10.8544-174.2464 24.8704-260.4544 42.8672-1.7792 0.3712-3.6608 0.3456-5.504 0.4992z" fill="#007fff" p-id="14271"></path><path d="M387.4688 537.0624c46.4512-78.8864 105.2544-143.9616 193.4464-176.8704-19.1104 26.688-33.4848 55.1808-39.104 88.96 131.968-45.76 266.7648-50.2144 403.4304-34.3424-197.0304-10.112-380.5824 40.768-557.7728 122.2528zM1002.816 687.4368c-18.1248-1.6768-36.2624-3.4304-54.4128-5.056-29.0944-2.5728-58.2016-5.5424-87.3472-7.552-64.0256-4.3904-128.1408-7.1808-192.2944-7.4112a3017.7152 3017.7152 0 0 0-213.312 6.7712c-57.8048 3.8912-115.5072 9.152-173.2736 13.5168-27.52 2.0864-54.9632 4.6976-82.4448 7.0784-1.1648 0.1024-2.0864-0.2944-2.4832-2.5984 268.2368-55.5264 536.6912-68.6336 805.7728-6.848-0.0896 0.6912-0.1408 1.3952-0.2048 2.0992zM215.552 528.6272c-7.9232 2.7264-11.8528 8.6912-15.9616 14.7072-8.7808 12.8512-21.5808 21.504-33.6896 30.7584a285.696 285.696 0 0 1-19.9168 13.9904c3.6608-7.5904 9.8304-14.0288 10.688-23.6672-21.376 5.0176-38.7072 17.1264-57.472 26.2912 19.4688-13.8368 34.4832-33.4464 57.0496-42.816 6.08-2.496 7.0656-5.9776 4.928-11.8912-4.3776-11.9936-10.9312-23.3088-12.1216-36.3392-2.2912-24.6656-11.6736-47.0016-22.0544-69.0816-1.472-3.136-2.7136-6.3872-3.9808-9.6256-0.256-0.6656-0.192-1.472-0.2944-2.496 7.0528-1.5744 12.0192 2.2528 16.6272 6.208 19.4176 16.6016 29.9392 37.9264 33.088 63.1296 1.1392 9.2672 2.3808 18.5216 6.9248 26.9952 3.7888 7.104 9.088 10.9056 17.408 10.2272 6.1952-0.4864 12.2752 0.2432 18.7776 3.6096z" fill="#007fff" p-id="14272"></path></svg>