<?xml version="1.0" standalone="no"?><!DOCTYPE svg PUBLIC "-//W3C//DTD SVG 1.1//EN" "http://www.w3.org/Graphics/SVG/1.1/DTD/svg11.dtd"><svg t="1643251508806" class="icon" viewBox="0 0 1024 1024" version="1.1" xmlns="http://www.w3.org/2000/svg" p-id="143016" xmlns:xlink="http://www.w3.org/1999/xlink" width="200" height="200"><defs><style type="text/css"></style></defs><path d="M512 512m-512 0a512 512 0 1 0 1024 0 512 512 0 1 0-1024 0Z" fill="#E1EFFF" p-id="143017"></path><path d="M526.336 276.48c-94.208 0-172.032 77.824-172.032 172.032s75.776 172.032 172.032 172.032 172.032-77.824 172.032-172.032-77.824-172.032-172.032-172.032z m0 319.488c-79.872 0-147.456-65.536-147.456-147.456s65.536-147.456 147.456-147.456 147.456 65.536 147.456 147.456-67.584 147.456-147.456 147.456z" fill="#7BB9FF" p-id="143018"></path><path d="M704.512 630.784c49.152-47.104 79.872-112.64 79.872-184.32 0-139.264-116.736-251.904-256-251.904s-253.952 114.688-253.952 253.952c0 71.68 28.672 135.168 77.824 182.272l-79.872 139.264c-2.048 4.096 0 8.192 2.048 14.336s8.192 6.144 14.336 4.096l81.92-22.528 22.528 81.92c2.048 4.096 6.144 8.192 14.336 8.192 4.096 0 8.192-2.048 12.288-4.096l79.872-149.504v-2.048c10.24 2.048 18.432 2.048 28.672 2.048 10.24 0 18.432 0 28.672-2.048l83.968 147.456c2.048 4.096 6.144 6.144 12.288 6.144s12.288-4.096 8.192-12.288l22.528-81.92 81.92 22.528c4.096 2.048 12.288 0 14.336-4.096 4.096-2.048 4.096-8.192 2.048-14.336l-77.824-133.12zM471.04 698.368l-61.44 110.592-18.432-63.488-6.144-8.192c-2.048-2.048-4.096-2.048-6.144-2.048h-2.048l-63.488 18.432 59.392-104.448c28.672 22.528 61.44 38.912 96.256 47.104l2.048 2.048z m-147.456-249.856c0-112.64 92.16-204.8 204.8-204.8s204.8 92.16 204.8 204.8-92.16 204.8-204.8 204.8-204.8-92.16-204.8-204.8zM679.936 737.28c-2.048 0-6.144 0-8.192 2.048-4.096 0-6.144 4.096-6.144 6.144l-18.432 63.488-61.44-110.592 14.336-8.192c30.72-10.24 61.44-24.576 86.016-45.056l59.392 106.496-65.536-14.336z" fill="#7BB9FF" p-id="143019"></path><path d="M638.976 421.888c0-4.096-4.096-8.192-8.192-8.192l-61.44-12.288-30.72-55.296c-4.096-8.192-18.432-8.192-22.528 0l-30.72 55.296-61.44 12.288c-4.096 2.048-6.144 4.096-8.192 8.192-2.048 4.096 0 8.192 2.048 14.336l43.008 45.056-6.144 61.44c-2.048 4.096 0 8.192 4.096 12.288 2.048 2.048 4.096 2.048 6.144 2.048h2.048l57.344-26.624 57.344 26.624c4.096 0 8.192 0 14.336-2.048 2.048-2.048 4.096-6.144 4.096-12.288l-6.144-61.44 43.008-45.056c2.048-6.144 4.096-10.24 2.048-14.336zM573.44 466.944c-4.096 4.096-4.096 6.144-4.096 12.288l4.096 43.008-40.96-18.432c0-2.048-2.048-2.048-4.096-2.048s-4.096 0 0 2.048l-40.96 18.432 4.096-43.008c0-4.096-2.048-8.192-4.096-12.288l-30.72-32.768 43.008-8.192c4.096 0 6.144-4.096 8.192-6.144l20.48-38.912 20.48 38.912c2.048 4.096 4.096 6.144 8.192 6.144l43.008 8.192-26.624 32.768z" fill="#7BB9FF" p-id="143020"></path></svg>