<?xml version="1.0" standalone="no"?><!DOCTYPE svg PUBLIC "-//W3C//DTD SVG 1.1//EN" "http://www.w3.org/Graphics/SVG/1.1/DTD/svg11.dtd"><svg t="1643251524135" class="icon" viewBox="0 0 1024 1024" version="1.1" xmlns="http://www.w3.org/2000/svg" p-id="143149" xmlns:xlink="http://www.w3.org/1999/xlink" width="200" height="200"><defs><style type="text/css"></style></defs><path d="M512 512m-512 0a512 512 0 1 0 1024 0 512 512 0 1 0-1024 0Z" fill="#E1EFFF" p-id="143150"></path><path d="M550.24 695.2l149.28 90.24-39.52-169.92a74.08 74.08 0 0 1 23.68-72.8L816 428.48l-173.6-14.72a74.24 74.24 0 0 1-62.08-44.96l-68.32-160-67.84 160a74.24 74.24 0 0 1-62.08 44.96L208 428.48l131.84 114.24a74.08 74.08 0 0 1 23.68 72.8l-39.04 169.92 149.28-90.24a74.56 74.56 0 0 1 76.48 0z" fill="#7BB9FF" p-id="143151"></path></svg>