<?xml version="1.0" standalone="no"?><!DOCTYPE svg PUBLIC "-//W3C//DTD SVG 1.1//EN" "http://www.w3.org/Graphics/SVG/1.1/DTD/svg11.dtd"><svg t="1643251488639" class="icon" viewBox="0 0 1024 1024" version="1.1" xmlns="http://www.w3.org/2000/svg" p-id="142884" xmlns:xlink="http://www.w3.org/1999/xlink" width="200" height="200"><defs><style type="text/css"></style></defs><path d="M512 512m-512 0a512 512 0 1 0 1024 0 512 512 0 1 0-1024 0Z" fill="#E1EFFF" p-id="142885"></path><path d="M1020.352 573.461333c-26.794667 223.850667-197.973333 403.306667-417.770667 442.56a318.762667 318.762667 0 0 1-8.661333-73.941333c0-203.584 192.554667-368.64 430.08-368.64zM269.866667 60.757333a122.88 122.88 0 0 1-179.456 160.661334 514.197333 514.197333 0 0 1 179.285333-160.576z" fill="#E1EFFF" opacity=".6" p-id="142886"></path><path d="M618.666667 288.234667c0.085333-47.466667-25.834667-90.325333-65.706667-108.565334-39.850667-18.24-85.76-8.256-116.309333 25.28-30.549333 33.536-39.722667 84.032-23.210667 127.893334C429.930667 376.746667 468.842667 405.333333 512 405.333333c58.56-0.704 105.898667-52.693333 106.666667-117.098666zM575.936 405.333333h-127.872c-44.544 0.469333-88.384 12.864-128.064 36.224A747.477333 747.477333 0 0 1 512 533.333333a747.477333 747.477333 0 0 1 192-91.776c-39.68-23.36-83.52-35.754667-128.064-36.224z m224 149.333334c-17.621333 0-31.936 14.506667-31.936 32.384v64.938666A32.234667 32.234667 0 0 0 800 682.666667c17.002667 0 31.061333-13.461333 32-30.677334v-64.938666A32.256 32.256 0 0 0 799.957333 554.666667zM256 651.584v-65.834667C255.061333 568.32 241.002667 554.666667 224 554.666667s-31.061333 13.653333-32 31.082666v65.834667c0.938667 17.429333 14.997333 31.082667 32 31.082667s31.061333-13.653333 32-31.082667z m-42.666667-142.933333v18.112c43.434667 0.042667 78.634667 32.362667 78.72 72.256v72.384c-0.213333 39.786667-35.370667 71.978667-78.72 72.042666v18.090667a17.386667 17.386667 0 0 0 5.845334 13.098667 20.693333 20.693333 0 0 0 14.336 5.226666c100.821333 0 181.568 29.226667 257.152 73.472V549.141333c-76.906667-39.936-158.016-58.453333-257.152-58.453333a20.586667 20.586667 0 0 0-14.229334 5.056 17.301333 17.301333 0 0 0-5.952 12.906667z m518.613334 162.517333v-72.277333c0.085333-39.850667 35.285333-72.106667 78.72-72.170667v-18.090667a17.28 17.28 0 0 0-5.952-12.885333 20.586667 20.586667 0 0 0-14.229334-5.077333c-99.626667 0-181.205333 18.517333-257.152 58.410666V853.333333c75.584-44.074667 156.202667-73.386667 257.152-73.386666 10.88 0 19.690667-8.106667 19.690667-18.069334v-18.730666c-43.157333-0.32-78.016-32.384-78.208-71.978667z" fill="#7BB9FF" p-id="142887"></path></svg>