<?xml version="1.0" standalone="no"?><!DOCTYPE svg PUBLIC "-//W3C//DTD SVG 1.1//EN" "http://www.w3.org/Graphics/SVG/1.1/DTD/svg11.dtd"><svg t="1643251529857" class="icon" viewBox="0 0 1024 1024" version="1.1" xmlns="http://www.w3.org/2000/svg" p-id="143284" xmlns:xlink="http://www.w3.org/1999/xlink" width="200" height="200"><defs><style type="text/css"></style></defs><path d="M512 512m-512 0a512 512 0 1 0 1024 0 512 512 0 1 0-1024 0Z" fill="#E1EFFF" p-id="143285"></path><path d="M356.369067 751.9232h-44.032c-20.599467 0-37.9392-14.967467-40.174934-34.816l-31.351466-272.384c-2.679467-23.210667 16.093867-43.52 40.157866-43.52h75.349334c22.357333 0 40.482133 17.578667 40.482133 39.236267V712.874667c-0.0512 21.504-18.193067 39.048533-40.430933 39.048533z m386.56-350.72h-104.789334c-22.186667 0-40.277333-17.442133-40.277333-38.894933V303.786667c0-32.238933-26.965333-58.487467-60.3648-58.487467-33.3824 0-60.381867 26.146133-60.381867 58.487467v19.490133c-2.184533 42.922667-14.08 69.751467-33.006933 98.525867-2.730667 4.283733-4.539733 8.942933-5.546667 14.165333a70.4512 70.4512 0 0 0-1.604266 4.266667c0 0.580267 0.375467 0.989867 0.375466 1.553066 0 0.733867-0.375467 1.297067-0.375466 2.013867v269.038933c0 21.640533 18.141867 39.099733 40.482133 39.099734h171.793067c17.322667 0 32.853333-10.786133 38.4-26.760534l93.696-272.4352c8.704-25.429333-10.717867-51.5072-38.4-51.5072z" fill="#7BB9FF" p-id="143286"></path></svg>